<?xml version="1.0" encoding="UTF-8" standalone="no"?>
<!DOCTYPE svg PUBLIC "-//W3C//DTD SVG 1.1//EN" "http://www.w3.org/Graphics/SVG/1.1/DTD/svg11.dtd">
<svg width="100%" height="100%" viewBox="0 0 32 32" version="1.1" xmlns="http://www.w3.org/2000/svg" xmlns:xlink="http://www.w3.org/1999/xlink" xml:space="preserve" xmlns:serif="http://www.serif.com/" style="fill-rule:evenodd;clip-rule:evenodd;stroke-linejoin:round;stroke-miterlimit:2;">
    <g id="Artboard1" transform="matrix(1.33333,0,0,1.33333,0,0)">
        <rect x="0" y="0" width="24" height="24" style="fill:none;"/>
        <clipPath id="_clip1">
            <rect x="0" y="0" width="24" height="24"/>
        </clipPath>
        <g clip-path="url(#_clip1)">
            <g transform="matrix(5.98264,0,0,5.87527,-15.1435,-20.3136)">
                <path d="M6.543,4.683L6.543,6.317C6.543,6.993 6.004,7.542 5.34,7.542L3.734,7.542C3.07,7.542 2.53,6.993 2.53,6.317L2.53,4.683C2.53,4.007 3.07,3.457 3.734,3.457L5.34,3.457C6.004,3.457 6.543,4.007 6.543,4.683ZM6.292,4.683C6.292,4.148 5.865,3.713 5.34,3.713L3.734,3.713C3.208,3.713 2.781,4.148 2.781,4.683L2.781,6.317C2.781,6.852 3.208,7.287 3.734,7.287L5.34,7.287C5.865,7.287 6.292,6.852 6.292,6.317L6.292,4.683Z" style="fill:white;"/>
            </g>
            <g transform="matrix(0.75,0,0,0.75,3,3)">
                <path d="M5,22C4.45,22 3.979,21.804 3.588,21.413C3.196,21.021 3,20.55 3,20L3,6C3,5.45 3.196,4.979 3.588,4.587C3.979,4.196 4.45,4 5,4L6,4L6,2L8,2L8,4L16,4L16,2L18,2L18,4L19,4C19.55,4 20.021,4.196 20.413,4.587C20.804,4.979 21,5.45 21,6L21,20C21,20.55 20.804,21.021 20.413,21.413C20.021,21.804 19.55,22 19,22L5,22ZM5,20L19,20L19,10L5,10L5,20ZM5,8L19,8L19,6L5,6L5,8ZM5,8L5,6L5,8ZM12,14C11.717,14 11.479,13.904 11.288,13.712C11.096,13.521 11,13.283 11,13C11,12.717 11.096,12.479 11.288,12.288C11.479,12.096 11.717,12 12,12C12.283,12 12.521,12.096 12.713,12.288C12.904,12.479 13,12.717 13,13C13,13.283 12.904,13.521 12.713,13.712C12.521,13.904 12.283,14 12,14ZM8,14C7.717,14 7.479,13.904 7.288,13.712C7.096,13.521 7,13.283 7,13C7,12.717 7.096,12.479 7.288,12.288C7.479,12.096 7.717,12 8,12C8.283,12 8.521,12.096 8.713,12.288C8.904,12.479 9,12.717 9,13C9,13.283 8.904,13.521 8.713,13.712C8.521,13.904 8.283,14 8,14ZM16,14C15.717,14 15.479,13.904 15.288,13.712C15.096,13.521 15,13.283 15,13C15,12.717 15.096,12.479 15.288,12.288C15.479,12.096 15.717,12 16,12C16.283,12 16.521,12.096 16.713,12.288C16.904,12.479 17,12.717 17,13C17,13.283 16.904,13.521 16.713,13.712C16.521,13.904 16.283,14 16,14ZM12,18C11.717,18 11.479,17.904 11.288,17.713C11.096,17.521 11,17.283 11,17C11,16.717 11.096,16.479 11.288,16.288C11.479,16.096 11.717,16 12,16C12.283,16 12.521,16.096 12.713,16.288C12.904,16.479 13,16.717 13,17C13,17.283 12.904,17.521 12.713,17.713C12.521,17.904 12.283,18 12,18ZM8,18C7.717,18 7.479,17.904 7.288,17.713C7.096,17.521 7,17.283 7,17C7,16.717 7.096,16.479 7.288,16.288C7.479,16.096 7.717,16 8,16C8.283,16 8.521,16.096 8.713,16.288C8.904,16.479 9,16.717 9,17C9,17.283 8.904,17.521 8.713,17.713C8.521,17.904 8.283,18 8,18ZM16,18C15.717,18 15.479,17.904 15.288,17.713C15.096,17.521 15,17.283 15,17C15,16.717 15.096,16.479 15.288,16.288C15.479,16.096 15.717,16 16,16C16.283,16 16.521,16.096 16.713,16.288C16.904,16.479 17,16.717 17,17C17,17.283 16.904,17.521 16.713,17.713C16.521,17.904 16.283,18 16,18Z" style="fill:white;fill-rule:nonzero;"/>
            </g>
        </g>
    </g>
</svg>
