<?xml version="1.0" encoding="UTF-8" standalone="no"?>
<!DOCTYPE svg PUBLIC "-//W3C//DTD SVG 1.1//EN" "http://www.w3.org/Graphics/SVG/1.1/DTD/svg11.dtd">
<svg width="100%" height="100%" viewBox="0 0 24 24" version="1.1" xmlns="http://www.w3.org/2000/svg" xmlns:xlink="http://www.w3.org/1999/xlink" xml:space="preserve" xmlns:serif="http://www.serif.com/" style="fill-rule:evenodd;clip-rule:evenodd;stroke-linejoin:round;stroke-miterlimit:2;">
    <g id="Artboard2" transform="matrix(1.33333,0,0,1.33333,0,0)">
        <rect x="0" y="0" width="18" height="18" style="fill:none;"/>
        <g id="Artboard1" transform="matrix(0.5625,0,0,0.5625,2.25,2.25)">
            <rect x="0" y="0" width="24" height="24" style="fill:none;"/>
            <g transform="matrix(1.33333,0,0,1.33333,-4,-4)">
                <path d="M3,13L3,5C3,4.45 3.196,3.979 3.588,3.587C3.979,3.196 4.45,3 5,3L11,3L11,13L3,13ZM13,3L19,3C19.55,3 20.021,3.196 20.413,3.587C20.804,3.979 21,4.45 21,5L21,9L13,9L13,3ZM13,21L13,11L21,11L21,19C21,19.55 20.804,20.021 20.413,20.413C20.021,20.804 19.55,21 19,21L13,21ZM3,15L11,15L11,21L5,21C4.45,21 3.979,20.804 3.588,20.413C3.196,20.021 3,19.55 3,19L3,15ZM5,11L9,11L9,5L5,5L5,11ZM15,7L19,7L19,5L15,5L15,7ZM15,13L15,19L19,19L19,13L15,13ZM5,17L5,19L9,19L9,17L5,17Z" style="fill:url(#_Linear1);fill-rule:nonzero;"/>
            </g>
        </g>
    </g>
    <defs>
        <linearGradient id="_Linear1" x1="0" y1="0" x2="1" y2="0" gradientUnits="userSpaceOnUse" gradientTransform="matrix(18,18,-18,18,3.00001,3)"><stop offset="0" style="stop-color:rgb(26,179,140);stop-opacity:1"/><stop offset="1" style="stop-color:rgb(22,156,145);stop-opacity:1"/></linearGradient>
    </defs>
</svg>
