<?xml version="1.0" encoding="UTF-8" standalone="no"?>
<!DOCTYPE svg PUBLIC "-//W3C//DTD SVG 1.1//EN" "http://www.w3.org/Graphics/SVG/1.1/DTD/svg11.dtd">
<svg width="100%" height="100%" viewBox="0 0 32 32" version="1.1" xmlns="http://www.w3.org/2000/svg" xmlns:xlink="http://www.w3.org/1999/xlink" xml:space="preserve" xmlns:serif="http://www.serif.com/" style="fill-rule:evenodd;clip-rule:evenodd;stroke-linejoin:round;stroke-miterlimit:2;">
    <g id="Artboard1" transform="matrix(1.33333,0,0,1.33333,0,0)">
        <rect x="0" y="0" width="24" height="24" style="fill:none;"/>
        <clipPath id="_clip1">
            <rect x="0" y="0" width="24" height="24"/>
        </clipPath>
        <g clip-path="url(#_clip1)">
            <g transform="matrix(5.98264,0,0,5.87527,-15.1435,-20.3136)">
                <path d="M6.543,4.683L6.543,6.317C6.543,6.993 6.004,7.542 5.34,7.542L3.734,7.542C3.07,7.542 2.53,6.993 2.53,6.317L2.53,4.683C2.53,4.007 3.07,3.457 3.734,3.457L5.34,3.457C6.004,3.457 6.543,4.007 6.543,4.683ZM6.292,4.683C6.292,4.148 5.865,3.713 5.34,3.713L3.734,3.713C3.208,3.713 2.781,4.148 2.781,4.683L2.781,6.317C2.781,6.852 3.208,7.287 3.734,7.287L5.34,7.287C5.865,7.287 6.292,6.852 6.292,6.317L6.292,4.683Z" style="fill:white;"/>
            </g>
            <g transform="matrix(0.75,0,0,0.75,3,3)">
                <path d="M12,21C9.7,21 7.696,20.238 5.988,18.713C4.279,17.188 3.3,15.283 3.05,13L5.1,13C5.333,14.733 6.104,16.167 7.413,17.3C8.721,18.433 10.25,19 12,19C13.95,19 15.604,18.321 16.963,16.963C18.321,15.604 19,13.95 19,12C19,10.05 18.321,8.396 16.963,7.037C15.604,5.679 13.95,5 12,5C10.85,5 9.775,5.267 8.775,5.8C7.775,6.333 6.933,7.067 6.25,8L9,8L9,10L3,10L3,4L5,4L5,6.35C5.85,5.283 6.888,4.458 8.113,3.875C9.338,3.292 10.633,3 12,3C13.25,3 14.421,3.237 15.513,3.712C16.604,4.188 17.554,4.829 18.363,5.637C19.171,6.446 19.813,7.396 20.288,8.487C20.763,9.579 21,10.75 21,12C21,13.25 20.763,14.421 20.288,15.512C19.813,16.604 19.171,17.554 18.363,18.363C17.554,19.171 16.604,19.813 15.513,20.288C14.421,20.763 13.25,21 12,21ZM14.8,16.2L11,12.4L11,7L13,7L13,11.6L16.2,14.8L14.8,16.2Z" style="fill:white;fill-rule:nonzero;"/>
            </g>
        </g>
    </g>
</svg>
