<?xml version="1.0" encoding="UTF-8" standalone="no"?>
<!DOCTYPE svg PUBLIC "-//W3C//DTD SVG 1.1//EN" "http://www.w3.org/Graphics/SVG/1.1/DTD/svg11.dtd">
<svg width="100%" height="100%" viewBox="0 0 32 32" version="1.1" xmlns="http://www.w3.org/2000/svg" xmlns:xlink="http://www.w3.org/1999/xlink" xml:space="preserve" xmlns:serif="http://www.serif.com/" style="fill-rule:evenodd;clip-rule:evenodd;stroke-linejoin:round;stroke-miterlimit:2;">
    <g id="Artboard1" transform="matrix(1.33333,0,0,1.33333,0,0)">
        <rect x="0" y="0" width="24" height="24" style="fill:none;"/>
        <clipPath id="_clip1">
            <rect x="0" y="0" width="24" height="24"/>
        </clipPath>
        <g clip-path="url(#_clip1)">
            <g transform="matrix(5.98264,0,0,5.87527,-15.1435,-20.3136)">
                <path d="M6.543,4.683L6.543,6.317C6.543,6.993 6.004,7.542 5.34,7.542L3.734,7.542C3.07,7.542 2.53,6.993 2.53,6.317L2.53,4.683C2.53,4.007 3.07,3.457 3.734,3.457L5.34,3.457C6.004,3.457 6.543,4.007 6.543,4.683ZM6.292,4.683C6.292,4.148 5.865,3.713 5.34,3.713L3.734,3.713C3.208,3.713 2.781,4.148 2.781,4.683L2.781,6.317C2.781,6.852 3.208,7.287 3.734,7.287L5.34,7.287C5.865,7.287 6.292,6.852 6.292,6.317L6.292,4.683Z" style="fill:white;"/>
            </g>
            <g transform="matrix(0.75,0,0,0.75,2.99763,3)">
                <path d="M9,19L9,17L21,17L21,19L9,19ZM9,13L9,11L21,11L21,13L9,13ZM9,7L9,5L21,5L21,7L9,7ZM5,20C4.45,20 3.979,19.804 3.588,19.413C3.196,19.021 3,18.55 3,18C3,17.45 3.196,16.979 3.588,16.588C3.979,16.196 4.45,16 5,16C5.55,16 6.021,16.196 6.413,16.588C6.804,16.979 7,17.45 7,18C7,18.55 6.804,19.021 6.413,19.413C6.021,19.804 5.55,20 5,20ZM5,14C4.45,14 3.979,13.804 3.588,13.413C3.196,13.021 3,12.55 3,12C3,11.45 3.196,10.979 3.588,10.587C3.979,10.196 4.45,10 5,10C5.55,10 6.021,10.196 6.413,10.587C6.804,10.979 7,11.45 7,12C7,12.55 6.804,13.021 6.413,13.413C6.021,13.804 5.55,14 5,14ZM5,8C4.45,8 3.979,7.804 3.588,7.412C3.196,7.021 3,6.55 3,6C3,5.45 3.196,4.979 3.588,4.587C3.979,4.196 4.45,4 5,4C5.55,4 6.021,4.196 6.413,4.587C6.804,4.979 7,5.45 7,6C7,6.55 6.804,7.021 6.413,7.412C6.021,7.804 5.55,8 5,8Z" style="fill:white;fill-rule:nonzero;"/>
            </g>
        </g>
    </g>
</svg>
