<?xml version="1.0" encoding="UTF-8" standalone="no"?>
<!DOCTYPE svg PUBLIC "-//W3C//DTD SVG 1.1//EN" "http://www.w3.org/Graphics/SVG/1.1/DTD/svg11.dtd">
<svg width="100%" height="100%" viewBox="0 0 32 32" version="1.1" xmlns="http://www.w3.org/2000/svg" xmlns:xlink="http://www.w3.org/1999/xlink" xml:space="preserve" xmlns:serif="http://www.serif.com/" style="fill-rule:evenodd;clip-rule:evenodd;stroke-linejoin:round;stroke-miterlimit:2;">
    <g id="Artboard1" transform="matrix(1.33333,0,0,1.33333,0,0)">
        <rect x="0" y="0" width="24" height="24" style="fill:none;"/>
        <clipPath id="_clip1">
            <rect x="0" y="0" width="24" height="24"/>
        </clipPath>
        <g clip-path="url(#_clip1)">
            <g transform="matrix(5.98264,0,0,5.87527,-15.1435,-20.3136)">
                <path d="M6.543,4.683L6.543,6.317C6.543,6.993 6.004,7.542 5.34,7.542L3.734,7.542C3.07,7.542 2.53,6.993 2.53,6.317L2.53,4.683C2.53,4.007 3.07,3.457 3.734,3.457L5.34,3.457C6.004,3.457 6.543,4.007 6.543,4.683ZM6.292,4.683C6.292,4.148 5.865,3.713 5.34,3.713L3.734,3.713C3.208,3.713 2.781,4.148 2.781,4.683L2.781,6.317C2.781,6.852 3.208,7.287 3.734,7.287L5.34,7.287C5.865,7.287 6.292,6.852 6.292,6.317L6.292,4.683Z" style="fill:white;"/>
            </g>
            <g transform="matrix(0.75,0,0,0.75,3,3)">
                <path d="M4,20C3.45,20 2.979,19.804 2.588,19.413C2.196,19.021 2,18.55 2,18L2,6C2,5.45 2.196,4.979 2.588,4.587C2.979,4.196 3.45,4 4,4L20,4C20.55,4 21.021,4.196 21.413,4.587C21.804,4.979 22,5.45 22,6L22,18C22,18.55 21.804,19.021 21.413,19.413C21.021,19.804 20.55,20 20,20L4,20ZM12,13L4,8L4,18L20,18L20,8L12,13ZM12,11L20,6L4,6L12,11ZM4,18L4,6L4,18Z" style="fill:white;fill-rule:nonzero;"/>
            </g>
        </g>
    </g>
</svg>
