<?xml version="1.0" encoding="UTF-8" standalone="no"?>
<!DOCTYPE svg PUBLIC "-//W3C//DTD SVG 1.1//EN" "http://www.w3.org/Graphics/SVG/1.1/DTD/svg11.dtd">
<svg width="100%" height="100%" viewBox="0 0 24 24" version="1.1" xmlns="http://www.w3.org/2000/svg" xmlns:xlink="http://www.w3.org/1999/xlink" xml:space="preserve" xmlns:serif="http://www.serif.com/" style="fill-rule:evenodd;clip-rule:evenodd;stroke-linejoin:round;stroke-miterlimit:2;">
    <path d="M4,19L4,17L6,17L6,10C6,8.617 6.417,7.387 7.25,6.313C8.083,5.238 9.167,4.533 10.5,4.2L10.5,3.5C10.5,3.083 10.646,2.729 10.938,2.438C11.229,2.146 11.583,2 12,2C12.417,2 12.771,2.146 13.063,2.438C13.354,2.729 13.5,3.083 13.5,3.5L13.5,4.2C14.833,4.533 15.917,5.238 16.75,6.313C17.583,7.387 18,8.617 18,10L18,17L20,17L20,19L4,19ZM12,22C11.45,22 10.979,21.804 10.588,21.413C10.196,21.021 10,20.55 10,20L14,20C14,20.55 13.804,21.021 13.413,21.413C13.021,21.804 12.55,22 12,22ZM8,17L16,17L16,10C16,8.9 15.608,7.958 14.825,7.175C14.042,6.392 13.1,6 12,6C10.9,6 9.958,6.392 9.175,7.175C8.392,7.958 8,8.9 8,10L8,17Z" style="fill-rule:nonzero;"/>
</svg>
