<?xml version="1.0" encoding="UTF-8" standalone="no"?>
<!DOCTYPE svg PUBLIC "-//W3C//DTD SVG 1.1//EN" "http://www.w3.org/Graphics/SVG/1.1/DTD/svg11.dtd">
<svg width="100%" height="100%" viewBox="0 0 32 32" version="1.1" xmlns="http://www.w3.org/2000/svg" xmlns:xlink="http://www.w3.org/1999/xlink" xml:space="preserve" xmlns:serif="http://www.serif.com/" style="fill-rule:evenodd;clip-rule:evenodd;stroke-linejoin:round;stroke-miterlimit:2;">
    <g id="Artboard1" transform="matrix(1.33333,0,0,1.33333,0,0)">
        <rect x="0" y="0" width="24" height="24" style="fill:none;"/>
        <clipPath id="_clip1">
            <rect x="0" y="0" width="24" height="24"/>
        </clipPath>
        <g clip-path="url(#_clip1)">
            <g transform="matrix(5.98264,0,0,5.87527,-15.1435,-20.3136)">
                <path d="M6.543,4.683L6.543,6.317C6.543,6.993 6.004,7.542 5.34,7.542L3.734,7.542C3.07,7.542 2.53,6.993 2.53,6.317L2.53,4.683C2.53,4.007 3.07,3.457 3.734,3.457L5.34,3.457C6.004,3.457 6.543,4.007 6.543,4.683ZM6.292,4.683C6.292,4.148 5.865,3.713 5.34,3.713L3.734,3.713C3.208,3.713 2.781,4.148 2.781,4.683L2.781,6.317C2.781,6.852 3.208,7.287 3.734,7.287L5.34,7.287C5.865,7.287 6.292,6.852 6.292,6.317L6.292,4.683Z" style="fill:white;"/>
            </g>
            <g transform="matrix(0.75,0,0,0.75,3,3)">
                <path d="M12,12C10.9,12 9.958,11.608 9.175,10.825C8.392,10.042 8,9.1 8,8C8,6.9 8.392,5.958 9.175,5.175C9.958,4.392 10.9,4 12,4C13.1,4 14.042,4.392 14.825,5.175C15.608,5.958 16,6.9 16,8C16,9.1 15.608,10.042 14.825,10.825C14.042,11.608 13.1,12 12,12ZM4,20L4,17.2C4,16.633 4.146,16.113 4.438,15.637C4.729,15.163 5.117,14.8 5.6,14.55C6.633,14.033 7.683,13.646 8.75,13.387C9.817,13.129 10.9,13 12,13C13.1,13 14.183,13.129 15.25,13.387C16.317,13.646 17.367,14.033 18.4,14.55C18.883,14.8 19.271,15.163 19.563,15.637C19.854,16.113 20,16.633 20,17.2L20,20L4,20ZM6,18L18,18L18,17.2C18,17.017 17.954,16.85 17.863,16.7C17.771,16.55 17.65,16.433 17.5,16.35C16.6,15.9 15.692,15.563 14.775,15.338C13.858,15.112 12.933,15 12,15C11.067,15 10.142,15.112 9.225,15.338C8.308,15.563 7.4,15.9 6.5,16.35C6.35,16.433 6.229,16.55 6.138,16.7C6.046,16.85 6,17.017 6,17.2L6,18ZM12,10C12.55,10 13.021,9.804 13.413,9.413C13.804,9.021 14,8.55 14,8C14,7.45 13.804,6.979 13.413,6.587C13.021,6.196 12.55,6 12,6C11.45,6 10.979,6.196 10.588,6.587C10.196,6.979 10,7.45 10,8C10,8.55 10.196,9.021 10.588,9.413C10.979,9.804 11.45,10 12,10Z" style="fill:white;fill-rule:nonzero;"/>
            </g>
        </g>
    </g>
</svg>
