<?xml version="1.0" encoding="UTF-8" standalone="no"?>
<!DOCTYPE svg PUBLIC "-//W3C//DTD SVG 1.1//EN" "http://www.w3.org/Graphics/SVG/1.1/DTD/svg11.dtd">
<svg width="100%" height="100%" viewBox="0 0 32 32" version="1.1" xmlns="http://www.w3.org/2000/svg" xmlns:xlink="http://www.w3.org/1999/xlink" xml:space="preserve" xmlns:serif="http://www.serif.com/" style="fill-rule:evenodd;clip-rule:evenodd;stroke-linejoin:round;stroke-miterlimit:2;">
    <g id="Artboard1" transform="matrix(1.33333,0,0,1.33333,0,0)">
        <rect x="0" y="0" width="24" height="24" style="fill:none;"/>
        <g>
            <clipPath id="_clip1">
                <rect x="0" y="0" width="24" height="24"/>
            </clipPath>
            <g clip-path="url(#_clip1)">
                <g transform="matrix(5.98264,0,0,5.87527,-15.1435,-20.3136)">
                    <path d="M6.543,4.683L6.543,6.317C6.543,6.993 6.004,7.542 5.34,7.542L3.734,7.542C3.07,7.542 2.53,6.993 2.53,6.317L2.53,4.683C2.53,4.007 3.07,3.457 3.734,3.457L5.34,3.457C6.004,3.457 6.543,4.007 6.543,4.683ZM6.292,4.683C6.292,4.148 5.865,3.713 5.34,3.713L3.734,3.713C3.208,3.713 2.781,4.148 2.781,4.683L2.781,6.317C2.781,6.852 3.208,7.287 3.734,7.287L5.34,7.287C5.865,7.287 6.292,6.852 6.292,6.317L6.292,4.683Z" style="fill:white;"/>
                </g>
                <g transform="matrix(0.750002,0,0,0.750002,3.00413,3.00413)">
                    <path d="M7,20L7,8.975C7,8.425 7.2,7.958 7.6,7.575C8,7.192 8.475,7 9.025,7L20,7C20.55,7 21.021,7.196 21.413,7.587C21.804,7.979 22,8.45 22,9L22,17L17,22L9,22C8.45,22 7.979,21.804 7.588,21.413C7.196,21.021 7,20.55 7,20ZM2.025,6.25C1.925,5.7 2.033,5.204 2.35,4.762C2.667,4.321 3.1,4.05 3.65,3.95L14.5,2.025C15.05,1.925 15.546,2.033 15.988,2.35C16.429,2.667 16.7,3.1 16.8,3.65L17.05,5L15,5L14.825,4L4,5.925L5,11.575L5,18.55C4.733,18.4 4.504,18.2 4.313,17.95C4.121,17.7 4,17.417 3.95,17.1L2.025,6.25ZM9,9L9,20L16,20L16,16L20,16L20,9L9,9Z" style="fill:white;fill-rule:nonzero;"/>
                </g>
            </g>
        </g>
    </g>
</svg>
