<?xml version="1.0" encoding="UTF-8" standalone="no"?>
<!DOCTYPE svg PUBLIC "-//W3C//DTD SVG 1.1//EN" "http://www.w3.org/Graphics/SVG/1.1/DTD/svg11.dtd">
<svg width="100%" height="100%" viewBox="0 0 32 32" version="1.1" xmlns="http://www.w3.org/2000/svg" xmlns:xlink="http://www.w3.org/1999/xlink" xml:space="preserve" xmlns:serif="http://www.serif.com/" style="fill-rule:evenodd;clip-rule:evenodd;stroke-linejoin:round;stroke-miterlimit:2;">
    <g id="Artboard1" transform="matrix(1.33333,0,0,1.33333,0,0)">
        <rect x="0" y="0" width="24" height="24" style="fill:none;"/>
        <clipPath id="_clip1">
            <rect x="0" y="0" width="24" height="24"/>
        </clipPath>
        <g clip-path="url(#_clip1)">
            <g transform="matrix(5.98264,0,0,5.87527,-15.1435,-20.3136)">
                <path d="M6.543,4.683L6.543,6.317C6.543,6.993 6.004,7.542 5.34,7.542L3.734,7.542C3.07,7.542 2.53,6.993 2.53,6.317L2.53,4.683C2.53,4.007 3.07,3.457 3.734,3.457L5.34,3.457C6.004,3.457 6.543,4.007 6.543,4.683ZM6.292,4.683C6.292,4.148 5.865,3.713 5.34,3.713L3.734,3.713C3.208,3.713 2.781,4.148 2.781,4.683L2.781,6.317C2.781,6.852 3.208,7.287 3.734,7.287L5.34,7.287C5.865,7.287 6.292,6.852 6.292,6.317L6.292,4.683Z" style="fill:white;"/>
            </g>
            <g transform="matrix(0.75,0,0,0.75,3,3)">
                <path d="M4.5,12.337L4.5,11.663C4.5,11.554 4.508,11.442 4.525,11.325L1.95,9.375L4.7,4.625L7.675,5.875C7.858,5.742 8.05,5.617 8.25,5.5C8.45,5.383 8.65,5.283 8.85,5.2L9.25,2L14.75,2L15.15,5.2C15.367,5.283 15.571,5.383 15.763,5.5C15.954,5.617 16.142,5.742 16.325,5.875L19.3,4.625L22.05,9.375L19.475,11.325C19.492,11.442 19.5,11.554 19.5,11.663L19.5,12.337C19.5,12.446 19.492,12.558 19.475,12.675L22.05,14.625L19.3,19.375L16.325,18.125C16.142,18.258 15.954,18.383 15.763,18.5C15.571,18.617 15.367,18.717 15.15,18.8L14.75,22L9.25,22L8.85,18.8C8.65,18.717 8.45,18.617 8.25,18.5C8.05,18.383 7.858,18.258 7.675,18.125L4.7,19.375L1.95,14.625L4.525,12.675C4.508,12.558 4.5,12.446 4.5,12.337ZM17.5,12C17.483,11.683 17.458,11.404 17.425,11.163C17.392,10.921 17.342,10.692 17.275,10.475L19.425,8.85L18.45,7.15L15.975,8.2C15.608,7.817 15.204,7.496 14.763,7.238C14.321,6.979 13.842,6.783 13.325,6.65L13,4L11.025,4L10.675,6.65C10.158,6.783 9.679,6.979 9.238,7.238C8.796,7.496 8.392,7.808 8.025,8.175L5.55,7.15L4.575,8.85L6.725,10.45C6.642,10.7 6.583,10.95 6.55,11.2C6.517,11.45 6.5,11.717 6.5,12C6.5,12.283 6.517,12.55 6.55,12.8C6.583,13.05 6.642,13.3 6.725,13.55L4.575,15.15L5.55,16.85L8.025,15.825C8.392,16.192 8.796,16.504 9.238,16.763C9.679,17.021 10.158,17.217 10.675,17.35L11.025,20L13,20L13.325,17.35C13.842,17.217 14.321,17.021 14.763,16.763C15.204,16.504 15.608,16.183 15.975,15.8L18.45,16.85L19.425,15.15L17.275,13.525C17.342,13.308 17.392,13.079 17.425,12.837C17.458,12.596 17.483,12.317 17.5,12ZM8.55,12C8.55,11.033 8.888,10.208 9.563,9.525C10.238,8.842 11.067,8.5 12.05,8.5C13.017,8.5 13.842,8.842 14.525,9.525C15.208,10.208 15.55,11.033 15.55,12C15.55,12.967 15.208,13.792 14.525,14.475C13.842,15.158 13.017,15.5 12.05,15.5C11.067,15.5 10.238,15.158 9.563,14.475C8.888,13.792 8.55,12.967 8.55,12ZM13.55,12C13.55,11.583 13.404,11.229 13.113,10.938C12.821,10.646 12.467,10.5 12.05,10.5C11.633,10.5 11.279,10.646 10.988,10.938C10.696,11.229 10.55,11.583 10.55,12C10.55,12.417 10.696,12.771 10.988,13.063C11.279,13.354 11.633,13.5 12.05,13.5C12.467,13.5 12.821,13.354 13.113,13.063C13.404,12.771 13.55,12.417 13.55,12Z" style="fill:white;"/>
            </g>
        </g>
    </g>
</svg>
