<?xml version="1.0" encoding="UTF-8" standalone="no"?>
<!DOCTYPE svg PUBLIC "-//W3C//DTD SVG 1.1//EN" "http://www.w3.org/Graphics/SVG/1.1/DTD/svg11.dtd">
<svg width="100%" height="100%" viewBox="0 0 24 24" version="1.1" xmlns="http://www.w3.org/2000/svg" xmlns:xlink="http://www.w3.org/1999/xlink" xml:space="preserve" xmlns:serif="http://www.serif.com/" style="fill-rule:evenodd;clip-rule:evenodd;stroke-linejoin:round;stroke-miterlimit:2;">
    <path d="M18,13L18,17L20,17L20,19L4,19L4,17L6,17L6,10C6,8.617 6.417,7.387 7.25,6.313C8.083,5.238 9.167,4.533 10.5,4.2L10.5,3.5C10.5,3.083 10.646,2.729 10.938,2.438C11.229,2.146 11.583,2 12,2C12.417,2 12.771,2.146 13.063,2.438C13.354,2.729 13.5,3.083 13.5,3.5L13.5,4.2C14.833,4.533 15.917,5.238 16.75,6.313C17.377,7.121 17.768,8.017 17.923,9L15.882,9C15.712,8.318 15.36,7.71 14.825,7.175C14.29,6.64 13.682,6.288 13,6.118L13,6.125C12.833,6.092 12.671,6.063 12.513,6.037C12.354,6.012 12.183,6 12,6C11.817,6 11.646,6.012 11.487,6.037C11.329,6.063 11.167,6.092 11,6.125L11,6.118C10.318,6.288 9.71,6.64 9.175,7.175C8.392,7.958 8,8.9 8,10L8,17L16,17L16,13L18,13ZM12,22C11.45,22 10.979,21.804 10.588,21.413C10.196,21.021 10,20.55 10,20L14,20C14,20.55 13.804,21.021 13.413,21.413C13.021,21.804 12.55,22 12,22Z"/>
    <g transform="matrix(1,0,0,1,2.72614,2.45403)">
        <g transform="matrix(1.30502,0,0,1.04072,-5.26889,-0.347954)">
            <rect x="14.209" y="7.585" width="6.13" height="1.922"/>
        </g>
        <g transform="matrix(7.99095e-17,-1.30502,1.04072,6.37254e-17,8.37993,31.0887)">
            <rect x="14.209" y="7.585" width="6.13" height="1.922"/>
        </g>
    </g>
</svg>
