<?xml version="1.0" encoding="UTF-8" standalone="no"?>
<!DOCTYPE svg PUBLIC "-//W3C//DTD SVG 1.1//EN" "http://www.w3.org/Graphics/SVG/1.1/DTD/svg11.dtd">
<svg width="100%" height="100%" viewBox="0 0 32 32" version="1.1" xmlns="http://www.w3.org/2000/svg" xmlns:xlink="http://www.w3.org/1999/xlink" xml:space="preserve" xmlns:serif="http://www.serif.com/" style="fill-rule:evenodd;clip-rule:evenodd;stroke-linejoin:round;stroke-miterlimit:2;">
    <g id="Artboard1" transform="matrix(1.33333,0,0,1.33333,0,0)">
        <rect x="0" y="0" width="24" height="24" style="fill:none;"/>
        <clipPath id="_clip1">
            <rect x="0" y="0" width="24" height="24"/>
        </clipPath>
        <g clip-path="url(#_clip1)">
            <g transform="matrix(5.98264,0,0,5.87527,-15.1435,-20.3136)">
                <path d="M6.543,4.683L6.543,6.317C6.543,6.993 6.004,7.542 5.34,7.542L3.734,7.542C3.07,7.542 2.53,6.993 2.53,6.317L2.53,4.683C2.53,4.007 3.07,3.457 3.734,3.457L5.34,3.457C6.004,3.457 6.543,4.007 6.543,4.683ZM6.292,4.683C6.292,4.148 5.865,3.713 5.34,3.713L3.734,3.713C3.208,3.713 2.781,4.148 2.781,4.683L2.781,6.317C2.781,6.852 3.208,7.287 3.734,7.287L5.34,7.287C5.865,7.287 6.292,6.852 6.292,6.317L6.292,4.683Z" style="fill:white;"/>
            </g>
            <g transform="matrix(0.75,0,0,0.75,2.99763,2.625)">
                <path d="M10.6,16C10.6,14.65 10.721,13.679 10.963,13.087C11.204,12.496 11.717,11.85 12.5,11.15C13.183,10.55 13.704,10.029 14.063,9.587C14.421,9.146 14.6,8.642 14.6,8.075C14.6,7.392 14.371,6.825 13.913,6.375C13.454,5.925 12.817,5.7 12,5.7C11.15,5.7 10.504,5.958 10.063,6.475C9.621,6.992 9.308,7.517 9.125,8.05L6.55,6.95C6.9,5.883 7.542,4.958 8.475,4.175C9.408,3.392 10.583,3 12,3C13.75,3 15.096,3.487 16.038,4.462C16.979,5.438 17.45,6.608 17.45,7.975C17.45,8.808 17.271,9.521 16.913,10.112C16.554,10.704 15.992,11.375 15.225,12.125C14.408,12.908 13.913,13.504 13.738,13.913C13.563,14.321 13.475,15.017 13.475,16L10.6,16ZM12,22C11.45,22 10.979,21.804 10.588,21.413C10.196,21.021 10,20.55 10,20C10,19.45 10.196,18.979 10.588,18.588C10.979,18.196 11.45,18 12,18C12.55,18 13.021,18.196 13.413,18.588C13.804,18.979 14,19.45 14,20C14,20.55 13.804,21.021 13.413,21.413C13.021,21.804 12.55,22 12,22Z" style="fill:white;fill-rule:nonzero;"/>
            </g>
        </g>
    </g>
</svg>
