<?xml version="1.0" encoding="UTF-8" standalone="no"?>
<!DOCTYPE svg PUBLIC "-//W3C//DTD SVG 1.1//EN" "http://www.w3.org/Graphics/SVG/1.1/DTD/svg11.dtd">
<svg width="100%" height="100%" viewBox="0 0 24 24" version="1.1" xmlns="http://www.w3.org/2000/svg" xmlns:xlink="http://www.w3.org/1999/xlink" xml:space="preserve" xmlns:serif="http://www.serif.com/" style="fill-rule:evenodd;clip-rule:evenodd;stroke-linejoin:round;stroke-miterlimit:2;">
    <path d="M18,13L18,17L20,17L20,19L4,19L4,17L6,17L6,10C6,9.657 6.026,9.324 6.077,9C6.232,8.017 6.623,7.121 7.25,6.313C8.083,5.238 9.167,4.533 10.5,4.2L10.5,3.5C10.5,3.083 10.646,2.729 10.938,2.438C11.229,2.146 11.583,2 12,2C12.417,2 12.771,2.146 13.063,2.438C13.354,2.729 13.5,3.083 13.5,3.5L13.5,4.2C14.833,4.533 15.917,5.238 16.75,6.313C17.377,7.121 17.768,8.017 17.923,9L15,9L15,13L18,13ZM12,22C11.45,22 10.979,21.804 10.587,21.413C10.196,21.021 10,20.55 10,20L14,20C14,20.55 13.804,21.021 13.413,21.413C13.021,21.804 12.55,22 12,22Z"/>
    <g transform="matrix(1.30502,0,0,1.04072,-2.54275,2.10608)">
        <g>
            <rect x="14.209" y="7.585" width="6.13" height="1.922"/>
        </g>
    </g>
</svg>
