<?xml version="1.0" encoding="UTF-8" standalone="no"?>
<!DOCTYPE svg PUBLIC "-//W3C//DTD SVG 1.1//EN" "http://www.w3.org/Graphics/SVG/1.1/DTD/svg11.dtd">
<svg width="100%" height="100%" viewBox="0 0 1280 408" version="1.1" xmlns="http://www.w3.org/2000/svg" xmlns:xlink="http://www.w3.org/1999/xlink" xml:space="preserve" xmlns:serif="http://www.serif.com/" style="fill-rule:evenodd;clip-rule:evenodd;stroke-linecap:round;stroke-linejoin:round;stroke-miterlimit:1.5;">
    <g id="Artboard1" transform="matrix(1.06667,0,0,0.68,0,0)">
        <rect x="0" y="0" width="1200" height="600" style="fill:none;"/>
        <g transform="matrix(1.92149,0,0,1.47059,-311.854,-110.845)">
            <path d="M426.742,245.875L181.814,245.875C181.68,245.875 181.57,245.651 181.57,245.375C181.57,245.099 181.68,244.875 181.814,244.875L426.742,244.875L426.742,245.875ZM463.822,244.875L767.298,244.875C767.432,244.875 767.542,245.099 767.542,245.375C767.542,245.651 767.432,245.875 767.298,245.875L463.822,245.875L463.822,244.875ZM463.822,284.875L602.394,284.875C602.389,285.1 602.387,285.326 602.387,285.554L602.387,285.875L463.822,285.875L463.822,284.875ZM639.459,284.875L767.298,284.875C767.432,284.875 767.542,285.099 767.542,285.375C767.542,285.651 767.432,285.875 767.298,285.875L639.467,285.875L639.467,285.554C639.467,285.326 639.465,285.1 639.459,284.875ZM639.467,324.875L660.935,324.875L660.935,325.875L639.467,325.875L639.467,324.875ZM698.016,324.875L720.763,324.875C720.649,325.198 720.542,325.532 720.443,325.875L698.016,325.875L698.016,324.875ZM755.285,324.875L767.298,324.875C767.432,324.875 767.542,325.099 767.542,325.375C767.542,325.651 767.432,325.875 767.298,325.875L755.605,325.875C755.505,325.532 755.398,325.198 755.285,324.875ZM756.564,364.875L767.298,364.875C767.432,364.875 767.542,365.099 767.542,365.375C767.542,365.651 767.432,365.875 767.298,365.875L756.564,365.875L756.564,364.875ZM756.564,404.875L767.298,404.875C767.432,404.875 767.542,405.099 767.542,405.375C767.542,405.651 767.432,405.875 767.298,405.875L756.564,405.875L756.564,404.875ZM719.483,405.875L698.016,405.875L698.016,404.875L719.483,404.875L719.483,405.875ZM660.935,405.875L639.467,405.875L639.467,404.875L660.935,404.875L660.935,405.875ZM602.387,405.875L580.919,405.875L580.919,404.875L602.387,404.875L602.387,405.875ZM543.838,405.875L522.371,405.875L522.371,404.875L543.838,404.875L543.838,405.875ZM485.29,405.875L463.822,405.875L463.822,404.875L485.29,404.875L485.29,405.875ZM426.742,405.875L405.274,405.875L405.274,404.875L426.742,404.875L426.742,405.875ZM368.193,405.875L346.726,405.875L346.726,404.875L368.193,404.875L368.193,405.875ZM309.645,405.875L288.177,405.875L288.177,404.875L309.645,404.875L309.645,405.875ZM251.097,405.875L229.629,405.875L229.629,404.875L251.097,404.875L251.097,405.875ZM192.548,405.875L181.814,405.875C181.68,405.875 181.57,405.651 181.57,405.375C181.57,405.099 181.68,404.875 181.814,404.875L192.548,404.875L192.548,405.875ZM192.548,365.875L181.814,365.875C181.68,365.875 181.57,365.651 181.57,365.375C181.57,365.099 181.68,364.875 181.814,364.875L192.548,364.875L192.548,365.875ZM229.629,364.875L251.097,364.875L251.097,365.875L229.629,365.875L229.629,364.875ZM251.097,325.875L181.814,325.875C181.68,325.875 181.57,325.651 181.57,325.375C181.57,325.099 181.68,324.875 181.814,324.875L251.097,324.875L251.097,325.875ZM251.097,285.875L181.814,285.875C181.68,285.875 181.57,285.651 181.57,285.375C181.57,285.099 181.68,284.875 181.814,284.875L251.097,284.875L251.097,285.875ZM288.177,284.875L426.742,284.875L426.742,285.875L288.177,285.875L288.177,284.875ZM430.645,244.875L459.919,244.875L459.919,245.875L430.645,245.875L430.645,244.875ZM459.919,285.875L430.645,285.875L430.645,284.875L459.919,284.875L459.919,285.875ZM606.308,284.875L635.545,284.875C635.558,285.098 635.564,285.324 635.564,285.554L635.564,285.875L606.29,285.875L606.29,285.554C606.29,285.324 606.296,285.098 606.308,284.875ZM463.822,324.875L543.838,324.875L543.838,325.875L463.822,325.875L463.822,324.875ZM580.919,324.875L602.387,324.875L602.387,325.875L580.919,325.875L580.919,324.875ZM635.564,325.875L606.29,325.875L606.29,324.875L635.564,324.875L635.564,325.875ZM664.838,324.875L694.112,324.875L694.112,325.875L664.838,325.875L664.838,324.875ZM639.467,364.875L660.935,364.875L660.935,365.875L639.467,365.875L639.467,364.875ZM698.016,364.875L719.483,364.875L719.483,365.875L698.016,365.875L698.016,364.875ZM752.661,365.875L723.386,365.875L723.386,364.875L752.661,364.875L752.661,365.875ZM752.661,405.875L723.386,405.875L723.386,404.875L752.661,404.875L752.661,405.875ZM694.112,405.875L664.838,405.875L664.838,404.875L694.112,404.875L694.112,405.875ZM635.564,405.875L606.29,405.875L606.29,404.875L635.564,404.875L635.564,405.875ZM577.016,405.875L547.741,405.875L547.741,404.875L577.016,404.875L577.016,405.875ZM602.387,365.875L580.919,365.875L580.919,364.875L602.387,364.875L602.387,365.875ZM518.467,405.875L489.193,405.875L489.193,404.875L518.467,404.875L518.467,405.875ZM543.838,365.875L463.822,365.875L463.822,364.875L543.838,364.875L543.838,365.875ZM459.919,405.875L430.645,405.875L430.645,404.875L459.919,404.875L459.919,405.875ZM401.371,405.875L372.096,405.875L372.096,404.875L401.371,404.875L401.371,405.875ZM426.742,365.875L405.274,365.875L405.274,364.875L426.742,364.875L426.742,365.875ZM342.822,405.875L313.548,405.875L313.548,404.875L342.822,404.875L342.822,405.875ZM368.193,365.875L346.726,365.875L346.726,364.875L368.193,364.875L368.193,365.875ZM284.274,405.875L255,405.875L255,404.875L284.274,404.875L284.274,405.875ZM309.645,365.875L288.177,365.875L288.177,364.875L309.645,364.875L309.645,365.875ZM225.726,405.875L196.451,405.875L196.451,404.875L225.726,404.875L225.726,405.875ZM196.451,364.875L225.726,364.875L225.726,365.875L196.451,365.875L196.451,364.875ZM255,364.875L284.274,364.875L284.274,365.875L255,365.875L255,364.875ZM255,324.875L284.274,324.875L284.274,325.875L255,325.875L255,324.875ZM255,284.875L284.274,284.875L284.274,285.875L255,285.875L255,284.875ZM288.177,324.875L309.645,324.875L309.645,325.875L288.177,325.875L288.177,324.875ZM346.726,324.875L426.742,324.875L426.742,325.875L346.726,325.875L346.726,324.875ZM430.645,324.875L459.919,324.875L459.919,325.875L430.645,325.875L430.645,324.875ZM547.741,324.875L577.016,324.875L577.016,325.875L547.741,325.875L547.741,324.875ZM606.29,364.875L635.564,364.875L635.564,365.875L606.29,365.875L606.29,364.875ZM664.838,364.875L694.112,364.875L694.112,365.875L664.838,365.875L664.838,364.875ZM577.016,365.875L547.741,365.875L547.741,364.875L577.016,364.875L577.016,365.875ZM459.919,365.875L430.645,365.875L430.645,364.875L459.919,364.875L459.919,365.875ZM401.371,365.875L372.096,365.875L372.096,364.875L401.371,364.875L401.371,365.875ZM342.822,365.875L313.548,365.875L313.548,364.875L342.822,364.875L342.822,365.875ZM313.548,324.875L342.822,324.875L342.822,325.875L313.548,325.875L313.548,324.875ZM181.814,205.875C181.68,205.875 181.57,205.651 181.57,205.375C181.57,205.099 181.68,204.875 181.814,204.875L767.298,204.875C767.432,204.875 767.542,205.099 767.542,205.375C767.542,205.651 767.432,205.875 767.298,205.875L181.814,205.875ZM181.814,165.875C181.68,165.875 181.57,165.651 181.57,165.375C181.57,165.099 181.68,164.875 181.814,164.875L767.298,164.875C767.432,164.875 767.542,165.099 767.542,165.375C767.542,165.651 767.432,165.875 767.298,165.875L181.814,165.875ZM181.814,125.875C181.68,125.875 181.57,125.651 181.57,125.375C181.57,125.099 181.68,124.875 181.814,124.875L767.298,124.875C767.432,124.875 767.542,125.099 767.542,125.375C767.542,125.651 767.432,125.875 767.298,125.875L181.814,125.875Z" style="fill:rgb(230,230,230);"/>
        </g>
        <g transform="matrix(1.55512,0,0,3.13113,-264.063,-773.57)">
            <path d="M248.173,372.938L248.173,420.835L212.002,420.835L212.002,372.938C212.002,371.383 213.623,370.12 215.619,370.12L244.556,370.12C246.552,370.12 248.173,371.383 248.173,372.938Z" style="fill:url(#_Linear1);"/>
        </g>
        <g transform="matrix(1.55512,0,0,3.72392,635.937,-1023.04)">
            <path d="M248.173,372.49L248.173,420.835L212.002,420.835L212.002,372.49C212.002,371.182 213.623,370.12 215.619,370.12L244.556,370.12C246.552,370.12 248.173,371.182 248.173,372.49Z" style="fill:url(#_Linear2);"/>
        </g>
        <g transform="matrix(1.55512,0,0,4.80838,523.437,-1479.41)">
            <path d="M248.173,371.955L248.173,420.835L212.002,420.835L212.002,371.955C212.002,370.942 213.623,370.12 215.619,370.12L244.556,370.12C246.552,370.12 248.173,370.942 248.173,371.955Z" style="fill:url(#_Linear3);"/>
        </g>
        <g transform="matrix(1.55512,0,0,2.70258,73.4366,-593.22)">
            <path d="M248.173,373.385L248.173,420.835L212.002,420.835L212.002,373.385C212.002,371.583 213.623,370.12 215.619,370.12L244.556,370.12C246.552,370.12 248.173,371.583 248.173,373.385Z" style="fill:url(#_Linear4);"/>
        </g>
        <g transform="matrix(1.55512,0,0,6.26226,185.937,-2091.26)">
            <path d="M248.173,371.529L248.173,420.835L212.002,420.835L212.002,371.529C212.002,370.752 213.623,370.12 215.619,370.12L244.556,370.12C246.552,370.12 248.173,370.752 248.173,371.529Z" style="fill:url(#_Linear5);"/>
        </g>
        <g transform="matrix(1.55512,0,0,1.71585,298.437,-177.972)">
            <path d="M248.173,375.192L248.173,420.835L212.002,420.835L212.002,375.192C212.002,372.393 213.601,370.12 215.569,370.12L244.606,370.12C246.575,370.12 248.173,372.393 248.173,375.192Z" style="fill:url(#_Linear6);"/>
        </g>
        <g transform="matrix(1.55512,0,0,4.07871,410.937,-1172.34)">
            <path d="M248.173,372.283L248.173,420.835L212.002,420.835L212.002,372.283C212.002,371.09 213.623,370.12 215.619,370.12L244.556,370.12C246.552,370.12 248.173,371.09 248.173,372.283Z" style="fill:url(#_Linear7);"/>
        </g>
        <g transform="matrix(1.55512,0,0,4.37464,-39.0634,-1296.88)">
            <path d="M248.173,372.137L248.173,420.835L212.002,420.835L212.002,372.137C212.002,371.024 213.623,370.12 215.619,370.12L244.556,370.12C246.552,370.12 248.173,371.024 248.173,372.137Z" style="fill:url(#_Linear8);"/>
        </g>
        <g transform="matrix(1.55512,0,0,5.29333,-151.563,-1683.5)">
            <path d="M248.173,371.787L248.173,420.835L212.002,420.835L212.002,371.787C212.002,370.867 213.623,370.12 215.619,370.12L244.556,370.12C246.552,370.12 248.173,370.867 248.173,371.787Z" style="fill:url(#_Linear9);"/>
        </g>
        <g transform="matrix(1.55512,0,0,3.4317,748.437,-900.061)">
            <path d="M248.173,372.691L248.173,420.835L212.002,420.835L212.002,372.691C212.002,371.272 213.623,370.12 215.619,370.12L244.556,370.12C246.552,370.12 248.173,371.272 248.173,372.691Z" style="fill:url(#_Linear10);"/>
        </g>
        <g transform="matrix(0.94375,0,0,1,33.75,-22.5882)">
            <g transform="matrix(2.03602,0,0,1.47059,-366.203,-29.4336)">
                <path d="M181.814,405.375L767.298,405.375" style="fill:none;stroke:rgb(191,191,191);stroke-width:0.62px;"/>
            </g>
            <g transform="matrix(3.51768e-17,-0.957881,0.993377,9.99649e-17,-398.717,740.862)">
                <path d="M181.814,405.375L734.505,405.375" style="fill:none;stroke:rgb(191,191,191);stroke-width:1.19px;"/>
            </g>
            <g transform="matrix(-7.96792e-18,0.0251175,-1.49007,1.5527e-17,608.009,562.139)">
                <path d="M181.814,405.375L767.298,405.375" style="fill:none;stroke:rgb(191,191,191);stroke-width:0.94px;"/>
            </g>
            <g transform="matrix(-7.96792e-18,0.0251175,-1.49007,1.5527e-17,727.214,562.139)">
                <path d="M181.814,405.375L767.298,405.375" style="fill:none;stroke:rgb(191,191,191);stroke-width:0.94px;"/>
            </g>
            <g transform="matrix(-7.96792e-18,0.0251175,-1.49007,1.5527e-17,846.419,562.139)">
                <path d="M181.814,405.375L767.298,405.375" style="fill:none;stroke:rgb(191,191,191);stroke-width:0.94px;"/>
            </g>
            <g transform="matrix(-7.96792e-18,0.0251175,-1.49007,1.5527e-17,965.625,562.139)">
                <path d="M181.814,405.375L767.298,405.375" style="fill:none;stroke:rgb(191,191,191);stroke-width:0.94px;"/>
            </g>
            <g transform="matrix(-7.96792e-18,0.0251175,-1.49007,1.5527e-17,1084.83,562.139)">
                <path d="M181.814,405.375L767.298,405.375" style="fill:none;stroke:rgb(191,191,191);stroke-width:0.94px;"/>
            </g>
            <g transform="matrix(-7.96792e-18,0.0251175,-1.49007,1.5527e-17,1204.04,562.139)">
                <path d="M181.814,405.375L767.298,405.375" style="fill:none;stroke:rgb(191,191,191);stroke-width:0.94px;"/>
            </g>
            <g transform="matrix(-7.96792e-18,0.0251175,-1.49007,1.5527e-17,1323.24,562.139)">
                <path d="M181.814,405.375L767.298,405.375" style="fill:none;stroke:rgb(191,191,191);stroke-width:0.94px;"/>
            </g>
            <g transform="matrix(-7.96792e-18,0.0251175,-1.49007,1.5527e-17,1442.45,562.139)">
                <path d="M181.814,405.375L767.298,405.375" style="fill:none;stroke:rgb(191,191,191);stroke-width:0.94px;"/>
            </g>
            <g transform="matrix(-7.96792e-18,0.0251175,-1.49007,1.5527e-17,1561.65,562.139)">
                <path d="M181.814,405.375L767.298,405.375" style="fill:none;stroke:rgb(191,191,191);stroke-width:0.94px;"/>
            </g>
            <g transform="matrix(-7.96792e-18,0.0251175,-1.49007,1.5527e-17,1680.86,562.139)">
                <path d="M181.814,405.375L767.298,405.375" style="fill:none;stroke:rgb(191,191,191);stroke-width:0.94px;"/>
            </g>
            <g transform="matrix(-7.96792e-18,0.0251175,-1.49007,1.5527e-17,1800.06,562.139)">
                <path d="M181.814,405.375L767.298,405.375" style="fill:none;stroke:rgb(191,191,191);stroke-width:0.94px;"/>
            </g>
        </g>
        <g transform="matrix(0.9375,0,0,1.47059,-132.571,-134.204)">
            <g transform="matrix(16,0,0,16,260.299,482.635)">
            </g>
            <text x="223.691px" y="482.635px" style="font-family:'Rubik-Regular', 'Rubik';font-size:16px;">1864</text>
        </g>
        <g transform="matrix(0.9375,0,0,1.47059,-210.936,-216.228)">
            <g transform="matrix(16,0,0,16,255.579,482.635)">
            </g>
            <text x="228.411px" y="482.635px" style="font-family:'Rubik-Regular', 'Rubik';font-size:16px;fill:rgb(191,191,191);">100</text>
        </g>
        <g transform="matrix(0.9375,0,0,1.47059,-211.831,-275.048)">
            <g transform="matrix(16,0,0,16,256.851,482.635)">
            </g>
            <text x="227.139px" y="482.635px" style="font-family:'Rubik-Regular', 'Rubik';font-size:16px;fill:rgb(191,191,191);">200</text>
        </g>
        <g transform="matrix(0.9375,0,0,1.47059,-211.909,-333.892)">
            <g transform="matrix(16,0,0,16,256.963,482.635)">
            </g>
            <text x="227.027px" y="482.635px" style="font-family:'Rubik-Regular', 'Rubik';font-size:16px;fill:rgb(191,191,191);">300</text>
        </g>
        <g transform="matrix(0.9375,0,0,1.47059,-212.022,-392.712)">
            <g transform="matrix(16,0,0,16,257.123,482.635)">
            </g>
            <text x="226.867px" y="482.635px" style="font-family:'Rubik-Regular', 'Rubik';font-size:16px;fill:rgb(191,191,191);">400</text>
        </g>
        <g transform="matrix(0.9375,0,0,1.47059,-211.87,-451.532)">
            <g transform="matrix(16,0,0,16,256.907,482.635)">
            </g>
            <text x="227.083px" y="482.635px" style="font-family:'Rubik-Regular', 'Rubik';font-size:16px;fill:rgb(191,191,191);">500</text>
        </g>
        <g transform="matrix(0.9375,0,0,1.47059,-211.921,-510.352)">
            <g transform="matrix(16,0,0,16,256.979,482.635)">
            </g>
            <text x="227.011px" y="482.635px" style="font-family:'Rubik-Regular', 'Rubik';font-size:16px;fill:rgb(191,191,191);">600</text>
        </g>
        <g transform="matrix(0.9375,0,0,1.47059,-211.414,-569.172)">
            <g transform="matrix(16,0,0,16,256.259,482.635)">
            </g>
            <text x="227.731px" y="482.635px" style="font-family:'Rubik-Regular', 'Rubik';font-size:16px;fill:rgb(191,191,191);">700</text>
        </g>
        <g transform="matrix(0.9375,0,0,1.47059,-212.106,-627.992)">
            <g transform="matrix(16,0,0,16,257.243,482.635)">
            </g>
            <text x="226.747px" y="482.635px" style="font-family:'Rubik-Regular', 'Rubik';font-size:16px;fill:rgb(191,191,191);">800</text>
        </g>
        <g transform="matrix(0.9375,0,0,1.47059,-19.1197,-134.204)">
            <g transform="matrix(16,0,0,16,260.083,482.635)">
            </g>
            <text x="223.907px" y="482.635px" style="font-family:'Rubik-Regular', 'Rubik';font-size:16px;">1865</text>
        </g>
        <g transform="matrix(0.9375,0,0,1.47059,94.0844,-134.204)">
            <g transform="matrix(16,0,0,16,260.155,482.635)">
            </g>
            <text x="223.835px" y="482.635px" style="font-family:'Rubik-Regular', 'Rubik';font-size:16px;">1866</text>
        </g>
        <g transform="matrix(0.9375,0,0,1.47059,206.748,-134.204)">
            <g transform="matrix(16,0,0,16,259.187,482.635)">
            </g>
            <text x="224.803px" y="482.635px" style="font-family:'Rubik-Regular', 'Rubik';font-size:16px;">186<tspan x="250.979px " y="482.635px ">7</tspan></text>
        </g>
        <g transform="matrix(0.9375,0,0,1.47059,319.722,-134.204)">
            <g transform="matrix(16,0,0,16,260.419,482.635)">
            </g>
            <text x="223.571px" y="482.635px" style="font-family:'Rubik-Regular', 'Rubik';font-size:16px;">1868</text>
        </g>
        <g transform="matrix(0.9375,0,0,1.47059,432.993,-134.204)">
            <g transform="matrix(16,0,0,16,260.075,482.635)">
            </g>
            <text x="223.915px" y="482.635px" style="font-family:'Rubik-Regular', 'Rubik';font-size:16px;">1869</text>
        </g>
        <g transform="matrix(0.9375,0,0,1.47059,545.832,-134.204)">
            <g transform="matrix(16,0,0,16,259.691,482.635)">
            </g>
            <text x="224.299px" y="482.635px" style="font-family:'Rubik-Regular', 'Rubik';font-size:16px;">1870</text>
        </g>
        <g transform="matrix(0.9375,0,0,1.47059,657.087,-134.204)">
            <g transform="matrix(16,0,0,16,258.035,482.635)">
            </g>
            <text x="225.955px" y="482.635px" style="font-family:'Rubik-Regular', 'Rubik';font-size:16px;">1871</text>
        </g>
        <g transform="matrix(0.9375,0,0,1.47059,767.917,-134.204)">
            <g transform="matrix(16,0,0,16,259.307,482.635)">
            </g>
            <text x="224.683px" y="482.635px" style="font-family:'Rubik-Regular', 'Rubik';font-size:16px;">1872</text>
        </g>
        <g transform="matrix(0.9375,0,0,1.47059,880.013,-134.204)">
            <g transform="matrix(16,0,0,16,259.419,482.635)">
            </g>
            <text x="224.571px" y="482.635px" style="font-family:'Rubik-Regular', 'Rubik';font-size:16px;">1873</text>
        </g>
        <g transform="matrix(0.0160124,1.33336e-17,-7.62095e-17,2.20588,25.2137,-350.092)">
            <path d="M181.814,405.375L767.298,405.375" style="fill:none;stroke:rgb(191,191,191);stroke-width:0.94px;"/>
        </g>
    </g>
    <defs>
        <linearGradient id="_Linear1" x1="0" y1="0" x2="1" y2="0" gradientUnits="userSpaceOnUse" gradientTransform="matrix(3.98595e-15,50.7146,-65.0955,3.10537e-15,537.54,370.12)"><stop offset="0" style="stop-color:rgb(26,179,140);stop-opacity:1"/><stop offset="1" style="stop-color:rgb(22,156,145);stop-opacity:1"/></linearGradient>
        <linearGradient id="_Linear2" x1="0" y1="0" x2="1" y2="0" gradientUnits="userSpaceOnUse" gradientTransform="matrix(3.98595e-15,42.6416,-65.0955,2.61105e-15,-41.1941,378.193)"><stop offset="0" style="stop-color:rgb(26,179,140);stop-opacity:1"/><stop offset="1" style="stop-color:rgb(22,156,145);stop-opacity:1"/></linearGradient>
        <linearGradient id="_Linear3" x1="0" y1="0" x2="1" y2="0" gradientUnits="userSpaceOnUse" gradientTransform="matrix(3.98595e-15,33.0244,-65.0955,2.02216e-15,31.1477,387.81)"><stop offset="0" style="stop-color:rgb(26,179,140);stop-opacity:1"/><stop offset="1" style="stop-color:rgb(22,156,145);stop-opacity:1"/></linearGradient>
        <linearGradient id="_Linear4" x1="0" y1="0" x2="1" y2="0" gradientUnits="userSpaceOnUse" gradientTransform="matrix(3.98595e-15,58.7565,-65.0955,3.5978e-15,320.515,362.078)"><stop offset="0" style="stop-color:rgb(26,179,140);stop-opacity:1"/><stop offset="1" style="stop-color:rgb(22,156,145);stop-opacity:1"/></linearGradient>
        <linearGradient id="_Linear5" x1="0" y1="0" x2="1" y2="0" gradientUnits="userSpaceOnUse" gradientTransform="matrix(3.98595e-15,25.3573,-65.0955,1.55269e-15,248.173,395.477)"><stop offset="0" style="stop-color:rgb(26,179,140);stop-opacity:1"/><stop offset="1" style="stop-color:rgb(22,156,145);stop-opacity:1"/></linearGradient>
        <linearGradient id="_Linear6" x1="0" y1="0" x2="1" y2="0" gradientUnits="userSpaceOnUse" gradientTransform="matrix(3.98595e-15,92.5453,-65.0955,5.66677e-15,175.831,328.289)"><stop offset="0" style="stop-color:rgb(26,179,140);stop-opacity:1"/><stop offset="1" style="stop-color:rgb(22,156,145);stop-opacity:1"/></linearGradient>
        <linearGradient id="_Linear7" x1="0" y1="0" x2="1" y2="0" gradientUnits="userSpaceOnUse" gradientTransform="matrix(3.98595e-15,38.9324,-65.0955,2.38392e-15,103.49,381.902)"><stop offset="0" style="stop-color:rgb(26,179,140);stop-opacity:1"/><stop offset="1" style="stop-color:rgb(22,156,145);stop-opacity:1"/></linearGradient>
        <linearGradient id="_Linear8" x1="0" y1="0" x2="1" y2="0" gradientUnits="userSpaceOnUse" gradientTransform="matrix(3.98595e-15,36.2988,-65.0955,2.22266e-15,392.857,384.536)"><stop offset="0" style="stop-color:rgb(26,179,140);stop-opacity:1"/><stop offset="1" style="stop-color:rgb(22,156,145);stop-opacity:1"/></linearGradient>
        <linearGradient id="_Linear9" x1="0" y1="0" x2="1" y2="0" gradientUnits="userSpaceOnUse" gradientTransform="matrix(3.98595e-15,29.9989,-65.0955,1.8369e-15,465.199,390.836)"><stop offset="0" style="stop-color:rgb(26,179,140);stop-opacity:1"/><stop offset="1" style="stop-color:rgb(22,156,145);stop-opacity:1"/></linearGradient>
        <linearGradient id="_Linear10" x1="0" y1="0" x2="1" y2="0" gradientUnits="userSpaceOnUse" gradientTransform="matrix(3.98595e-15,46.2727,-65.0955,2.83338e-15,-113.536,374.562)"><stop offset="0" style="stop-color:rgb(26,179,140);stop-opacity:1"/><stop offset="1" style="stop-color:rgb(22,156,145);stop-opacity:1"/></linearGradient>
    </defs>
</svg>
