<?xml version="1.0" encoding="UTF-8" standalone="no"?>
<!DOCTYPE svg PUBLIC "-//W3C//DTD SVG 1.1//EN" "http://www.w3.org/Graphics/SVG/1.1/DTD/svg11.dtd">
<svg width="100%" height="100%" viewBox="0 0 32 32" version="1.1" xmlns="http://www.w3.org/2000/svg" xmlns:xlink="http://www.w3.org/1999/xlink" xml:space="preserve" xmlns:serif="http://www.serif.com/" style="fill-rule:evenodd;clip-rule:evenodd;stroke-linejoin:round;stroke-miterlimit:2;">
    <g id="Artboard1" transform="matrix(1.33333,0,0,1.33333,0,0)">
        <rect x="0" y="0" width="24" height="24" style="fill:none;"/>
        <g transform="matrix(0.75,0,0,0.75,3,3)">
            <path d="M12,22C11.45,22 10.979,21.804 10.588,21.413C10.196,21.021 10,20.55 10,20L14,20C14,20.55 13.804,21.021 13.413,21.413C13.021,21.804 12.55,22 12,22ZM4,19L4,17L6,17L6,10C6,8.617 6.417,7.387 7.25,6.313C8.083,5.238 9.167,4.533 10.5,4.2L10.5,3.5C10.5,3.083 10.646,2.729 10.938,2.438C11.229,2.146 11.583,2 12,2C12.417,2 12.771,2.146 13.063,2.438C13.354,2.729 13.5,3.083 13.5,3.5L13.5,4.2C13.8,4.283 14.092,4.379 14.375,4.487C14.658,4.596 14.925,4.733 15.175,4.9C14.958,5.167 14.771,5.446 14.613,5.738C14.454,6.029 14.308,6.333 14.175,6.65C13.858,6.45 13.517,6.292 13.15,6.175C12.783,6.058 12.4,6 12,6C10.9,6 9.958,6.392 9.175,7.175C8.392,7.958 8,8.9 8,10L8,17L16,17L16,13.925C16.283,14.175 16.592,14.404 16.925,14.612C17.258,14.821 17.617,14.992 18,15.125L18,17L20,17L20,19L4,19ZM19,13L19,10L16,10L16,8L19,8L19,5L21,5L21,8L24,8L24,10L21,10L21,13L19,13Z" style="fill-rule:nonzero;"/>
        </g>
    </g>
</svg>
